<svg xmlns="http://www.w3.org/2000/svg" xmlns:xlink="http://www.w3.org/1999/xlink" id="eyAV9FWGZwU1" shape-rendering="geometricPrecision" text-rendering="geometricPrecision" viewBox="1.72 30.06 186.56 53.89"><g transform="matrix(.1 0 0-.1 0.422589 113.844446)"><path d="M1768,818l-36-23l21-41l22-42l45,17c32,12,47,24,54,44c22,60-39,86-106,45Z" fill="#06b6d4"/><path d="M1700,771c0-4,5-22,11-40c8-22,16-30,26-27c8,3,16,6,19,6c2,0-4,16-13,35-15,31-43,49-43,26Z" fill="#06b6d4"/><path d="M1161,676c-8-9-11-69-9-192l3-179l58-3l57-3-12,25c-36,80,88,228,275,327l72,38-216,1c-172,0-219-3-228-14Z" fill="#06b6d4"/><path d="M20,645c-9-11-9-19-2-28c6-7,12-36,14-65c4-71,22-70,29,0c4,32,12,65,20,74c11,13,10,17-2,25-21,13-45,11-59-6Z"/><path d="M135,635c-14-13-26-30-26-37-1-7-3-25-5-40-1-16,5-37,15-49c18-22,18-22,49-3c36,21,65,74,56,101-10,27-35,53-51,53-8,0-25-11-38-25Zm53-44c4-26-24-74-38-66-13,8-13,51,1,76c13,25,33,20,37-10Z"/><path d="M257,598c-4-35-10-73-13-86-6-22-5-23,32-17c45,8,70,29,79,66c5,21-1,33-28,63-50,53-63,48-70-26Zm61,10c17-17,15-67-3-74-30-12-41,2-37,45c4,41,18,51,40,29Z"/><path d="M419,653c-41-11-65-115-33-147c22-23,32-20,70,18c40,40,45,85,14,116-20,20-23,21-51,13Zm31-90c-23-40-40-41-40-1c0,44,18,64,39,43c14-14,14-18,1-42Z"/><path d="M666,648c-1-7-10-36-19-64-26-78-24-80,39-88c30-3,60-3,66,0c16,10-12,24-49,24-17,0-34,4-37,8-3,5,1,30,9,57c8,26,15,54,15,62c0,17-20,17-24,1Z"/><path d="M800,645c0-8,7-15,16-15c13,0,15-7,10-31-3-17-6-40-6-50c0-14-7-19-25-19-38,0-30-18,15-31c44-13,60-8,41,15-19,22-4,104,20,111c28,9,23,22-12,29-47,9-59,7-59-9Z"/><path d="M987,653c-4-3-7-18-7-32s-4-33-10-41c-8-12-10-12-15,2-4,9-8,24-9,34-3,20-21,30-30,16-10-17-23-123-15-128c5-3,11,7,15,21c8,31,17,32,38,3c15-23,16-23,31-4c9,13,15,41,15,78c0,59-1,63-13,51Z"/><path d="M1026,643c-3-10-8-46-11-80-4-47-2-63,8-63c6,0,22-3,35-6c14-4,22-2,22,6c0,6-9,14-20,17-30,8-26,41,5,45c32,4,37,22,8,26-30,4-31,39-1,44c38,5,33,28-5,28-25,0-37-5-41-17Z"/><path d="M595,618c-4-18-10-37-12-42-8-12-23,15-23,42c0,30-18,28-31-5-16-43-23-113-11-113c6,0,12,10,14,22c4,29,25,34,33,8c15-47,55,9,55,78c0,50-15,56-25,10Z"/></g></svg>